<?xml version="1.0" standalone="no"?>
<!DOCTYPE svg PUBLIC "-//W3C//DTD SVG 20010904//EN"
 "http://www.w3.org/TR/2001/REC-SVG-20010904/DTD/svg10.dtd">
<svg version="1.0" xmlns="http://www.w3.org/2000/svg"
 width="1366.000000pt" height="768.000000pt" viewBox="0 0 1366.000000 768.000000"
 preserveAspectRatio="xMidYMid meet">

<g transform="translate(0.000000,768.000000) scale(0.100000,-0.100000)"
fill="#000000" stroke="none">
<path d="M0 3840 l0 -3840 6830 0 6830 0 0 3840 0 3840 -6830 0 -6830 0 0
-3840z m7020 3276 c431 -54 853 -219 1198 -467 366 -263 640 -584 837 -984
152 -309 233 -589 266 -925 16 -173 6 -509 -20 -659 -11 -63 -19 -117 -16
-119 6 -7 166 102 194 132 33 36 82 35 110 0 12 -15 21 -35 21 -45 0 -31 -58
-87 -167 -160 -204 -136 -244 -145 -324 -78 -27 22 -84 82 -127 132 -139 162
-154 196 -107 242 47 48 64 38 184 -109 46 -56 66 -75 71 -65 15 28 41 249 47
399 20 531 -137 1065 -444 1509 -320 463 -816 821 -1348 974 -102 29 -259 65
-319 72 -23 3 -79 9 -126 15 -143 17 -439 12 -596 -9 -305 -43 -588 -132 -825
-261 -50 -27 -93 -50 -95 -50 -10 0 -195 -127 -283 -194 -123 -94 -321 -287
-411 -401 -364 -461 -552 -993 -551 -1565 0 -295 37 -529 127 -799 107 -319
271 -604 498 -865 62 -72 76 -93 76 -121 0 -39 -28 -65 -70 -65 -32 0 -40 7
-122 100 -351 403 -577 914 -639 1445 -20 177 -15 514 10 674 78 487 254 896
547 1269 93 118 324 347 442 439 424 327 942 524 1467 557 106 7 376 -3 495
-18z m1401 -1079 c24 -19 40 -54 32 -74 -3 -10 -45 -58 -93 -108 -156 -161
-210 -267 -217 -430 -4 -83 0 -122 21 -225 53 -249 58 -289 53 -415 -6 -134
-26 -215 -82 -334 -79 -165 -237 -365 -363 -459 -165 -122 -440 -241 -731
-316 l-123 -32 -44 -108 c-138 -343 -201 -558 -211 -711 l-6 -100 74 -19 c41
-10 121 -43 178 -72 l104 -53 134 96 c269 192 480 290 608 281 76 -5 129 -30
156 -75 24 -39 29 -106 9 -143 -11 -20 -10 -21 11 -10 12 7 51 31 88 55 165
106 327 175 410 175 80 -1 159 -61 183 -141 27 -93 -49 -221 -204 -345 l-36
-29 111 0 c161 -1 251 -37 292 -116 35 -67 12 -130 -85 -232 -220 -234 -689
-525 -1497 -930 l-382 -191 -129 -4 c-193 -6 -332 14 -858 124 l-131 27 -99
-53 c-212 -114 -552 -336 -674 -439 -107 -91 -134 -100 -169 -55 -28 35 -26
56 5 93 83 100 719 515 882 578 l45 17 236 -49 c440 -91 691 -125 805 -109 87
11 777 359 1176 592 408 238 750 494 750 560 0 33 -53 47 -175 47 -141 -1
-209 -21 -415 -125 -282 -142 -591 -263 -790 -309 -47 -11 -141 -35 -210 -54
-215 -61 -511 -120 -537 -108 -30 14 -45 53 -33 85 10 28 37 38 180 66 178 36
420 99 523 137 l98 36 -22 23 c-58 61 -216 120 -404 149 -221 35 -1139 28
-1432 -10 -132 -18 -282 -47 -358 -70 -38 -11 -151 -89 -457 -315 -422 -312
-438 -321 -480 -283 -18 16 -24 59 -10 79 6 10 773 578 833 617 38 25 302 84
459 103 74 8 196 19 270 22 l134 7 40 58 c22 33 71 88 110 123 122 114 259
174 442 196 l104 12 0 62 c0 78 23 200 62 333 35 121 35 127 -34 336 -103 314
-219 456 -352 431 -54 -10 -75 -35 -105 -122 -106 -304 -293 -498 -561 -585
-82 -27 -114 -32 -238 -37 -235 -8 -342 20 -342 91 0 27 12 42 72 97 91 82
123 134 143 229 45 208 96 282 253 364 192 101 405 119 553 49 l56 -27 36 26
c87 63 201 73 296 25 44 -23 121 -96 168 -161 l22 -30 -21 75 c-48 173 -129
353 -191 425 l-32 37 -84 -12 c-98 -15 -259 -8 -339 14 -138 38 -282 126 -390
241 -203 213 -341 539 -383 905 -14 122 -6 245 17 271 30 33 52 29 177 -36
119 -62 154 -76 406 -170 257 -95 411 -185 544 -318 91 -91 137 -176 163 -297
20 -94 14 -322 -10 -422 l-16 -68 51 -62 c62 -76 146 -246 192 -388 28 -86 71
-254 104 -410 4 -21 10 -11 38 57 l33 82 -50 112 c-62 140 -131 345 -160 475
-29 133 -31 377 -5 473 41 145 138 291 322 480 280 289 601 506 946 641 209
81 517 140 560 107z m4373 -4847 c56 -67 57 -148 1 -215 l-25 -30 0 88 c0 56
-4 86 -10 82 -5 -3 -10 -43 -10 -88 -1 -77 -2 -81 -16 -62 -33 41 -56 106 -50
140 7 34 59 115 75 115 5 0 21 -14 35 -30z m328 -86 c9 -6 -19 -85 -41 -110
-28 -34 -76 -54 -132 -54 -46 0 -50 2 -38 16 7 8 38 29 68 44 32 17 48 29 37
30 -11 0 -43 -14 -73 -30 -58 -33 -63 -29 -33 30 20 39 59 73 95 83 20 5 104
-1 117 -9z m-514 -126 c45 -13 83 -67 90 -125 l5 -48 -53 48 c-71 64 -88 60
-20 -4 58 -54 57 -66 -5 -55 -55 11 -101 61 -114 128 -7 32 -9 63 -6 68 7 11
42 7 103 -12z m445 -63 c18 -9 43 -24 57 -34 24 -19 24 -19 5 -41 -62 -69
-192 -78 -243 -18 -10 13 -8 16 18 22 17 3 51 3 77 -1 34 -4 44 -3 39 5 -4 7
-35 12 -78 12 -63 0 -69 2 -57 16 21 25 82 53 117 54 19 0 48 -7 65 -15z
m-440 -129 c32 -13 87 -68 87 -86 0 -5 -19 -3 -41 5 -23 8 -58 15 -78 14 l-36
-1 35 -10 c19 -5 55 -15 80 -22 l45 -13 -37 -17 c-74 -32 -146 -15 -191 46
-41 57 -41 57 5 78 51 23 87 25 131 6z m377 -66 c0 -82 -44 -139 -122 -161
-64 -17 -66 -5 -9 50 30 28 51 54 48 57 -3 4 -31 -18 -63 -47 l-56 -54 7 45
c4 25 14 59 24 75 20 36 92 75 138 75 32 0 33 -1 33 -40z"/>
<path d="M8072 5854 c-481 -142 -1009 -523 -1262 -910 -73 -112 -95 -192 -95
-349 1 -150 17 -239 77 -425 38 -118 131 -345 148 -364 12 -12 254 57 390 110
203 81 370 183 462 283 139 151 242 331 274 475 23 110 14 260 -26 431 -37
154 -49 330 -31 427 15 76 85 223 140 296 48 61 45 62 -77 26z m-431 -482
c-27 -37 -71 -103 -97 -147 -60 -102 -196 -385 -184 -385 5 0 21 5 35 10 30
11 238 50 243 45 2 -1 -30 -18 -70 -36 -40 -19 -93 -49 -118 -68 -24 -19 -69
-44 -100 -56 l-55 -21 -94 -190 c-103 -207 -108 -210 -110 -74 -2 169 86 414
210 581 57 77 364 405 382 408 4 0 -15 -29 -42 -67z"/>
<path d="M5243 5530 c17 -230 107 -495 237 -695 62 -95 184 -217 263 -264 126
-74 285 -108 422 -91 39 5 75 9 81 10 20 0 49 177 48 295 -1 211 -49 314 -202
438 -124 100 -240 157 -541 267 -79 28 -182 70 -229 91 l-85 39 6 -90z m383
-365 c43 -33 106 -78 140 -100 79 -52 272 -253 251 -261 -18 -6 -123 42 -192
88 -27 18 -80 71 -118 118 -37 47 -98 121 -135 165 -37 44 -57 73 -46 65 12
-8 57 -42 100 -75z"/>
<path d="M5595 3873 c-126 -44 -221 -106 -251 -165 -8 -16 -24 -70 -35 -120
-23 -107 -49 -170 -95 -235 -19 -27 -34 -52 -34 -57 0 -15 200 2 280 25 145
40 285 137 374 258 43 58 114 197 122 238 6 28 3 32 -41 53 -37 18 -70 24
-144 27 -85 3 -105 1 -176 -24z m135 -116 c0 -15 -98 -112 -155 -152 -22 -15
-55 -42 -74 -59 -39 -36 -35 -29 36 76 53 77 85 107 145 133 41 18 48 18 48 2z"/>
<path d="M7673 2815 c-107 -29 -357 -177 -532 -313 l-23 -19 47 -69 c26 -38
49 -71 50 -73 6 -5 213 122 309 191 159 112 295 253 269 279 -17 17 -68 18
-120 4z"/>
<path d="M8330 2797 c-78 -28 -154 -71 -394 -227 -260 -168 -374 -236 -514
-306 l-123 -62 31 -22 c18 -13 44 -39 59 -60 l27 -37 169 76 c522 235 895 488
895 608 0 58 -45 67 -150 30z"/>
</g>
</svg>
